# xmcd
#
# Track frame offsets:
#	150
#	14969
#	29788
#	44841
#	61027
#	101609
#	130491
#	156802
#	184522
#
# Disc length: 2841 seconds
#
# Revision: 1
# Processed by: cddbd v1.5.1PL0 Copyright (c) Steve Scherf et al.
# Submitted via: EasyCDDAExtractor 7.1.0.1
#
DISCID=810b1709
DTITLE=Various Artist - illusion
DYEAR=1900
DGENRE=
TTITLE0=dj nick - ilusion (vers. 2)
TTITLE1=dj nick - ilusion (vers. 3)
TTITLE2=dj nick - ilusion (vers. 4)
TTITLE3=dj nick - ilusion (vers. 5)
TTITLE4=Dave Armstrong - Make Your Move
TTITLE5=Dave Armstrong - Out of Time (Dodgy Boys Remix)
TTITLE6=Morandi - Love Me (Groove Hour Breakbeat Mix)
TTITLE7=New Taste - I Know Techno-Pop Mix
TTITLE8=Noe Vs. Jet Set - The Colour of My Dreams (Klubbhoppers Remix)
EXTD=
EXTT0=
EXTT1=
EXTT2=
EXTT3=
EXTT4=
EXTT5=
EXTT6=
EXTT7=
EXTT8=
PLAYORDER=
